<?xml version="1.0" encoding="UTF-8" standalone="no"?>
<svg
   xmlns:dc="http://purl.org/dc/elements/1.1/"
   xmlns:cc="http://creativecommons.org/ns#"
   xmlns:rdf="http://www.w3.org/1999/02/22-rdf-syntax-ns#"
   xmlns:svg="http://www.w3.org/2000/svg"
   xmlns="http://www.w3.org/2000/svg"
   id="4eed453e-e4d7-11eb-9ba7-0242ac110005"
   version="1.1"
   width="595.275590551pt"
   viewBox="0 0 595.275590551 841.88976378"
   height="841.88976378pt">
  <metadata
     id="metadata45">
    <rdf:RDF>
      <cc:Work
         rdf:about="">
        <dc:format>image/svg+xml</dc:format>
        <dc:type
           rdf:resource="http://purl.org/dc/dcmitype/StillImage" />
      </cc:Work>
    </rdf:RDF>
  </metadata>
  <defs
     id="defs43" />
  <g
     id="g2" />
  <g
     id="g34">
    <g
       id="g32">
      <path
         id="path4"
         d="M -1034.3622,-659.0608 L 1629.6378,-659.0608 1629.6378,1500.9506 -1034.3622,1500.9506 -1034.3622,-659.0608 Z"
         style="fill:none;" />
      <g
         id="g30">
        <path
           id="path6"
           d="M -537.6529,1148.6378 C -537.6529,1165.2372 -538.4699,1179.4544 -540.104,1191.2893 -541.7379,1203.1243 -545.097,1213.1915 -550.1809,1221.4913 -554.5383,1228.5615 -560.3029,1234.402 -567.4748,1239.0129 -574.6467,1243.624 -582.9531,1245.9294 -592.3947,1245.9294 -602.0175,1245.9294 -610.3242,1243.7776 -617.3147,1239.474 -624.3046,1235.1705 -629.9787,1229.33 -634.3362,1221.9523 -639.057,1213.96 -642.3707,1204.0464 -644.277,1192.2114 -646.1833,1180.3768 -647.1366,1166.0057 -647.1366,1149.0987 L -608.4632,1149.0987 C -608.4632,1155.8616 -608.2362,1161.7021 -607.7823,1166.6205 -607.3285,1171.5389 -606.1935,1175.6889 -604.3779,1179.0703 -603.2886,1181.2221 -601.7907,1183.0663 -599.8842,1184.6032 -597.9779,1186.1405 -595.4811,1186.9089 -592.3947,1186.9089 -586.7663,1186.9089 -582.681,1184.1423 -580.1391,1178.6091 -577.5973,1173.3834 -576.3263,1164.1615 -576.3263,1150.9432 -576.3263,1143.2582 -576.553,1136.8797 -577.0069,1131.8077 -577.461,1126.7357 -578.3233,1122.5857 -579.5943,1119.3579 -580.8651,1116.1304 -582.5903,1113.4406 -584.769,1111.2888 -586.9477,1109.137 -589.7619,1106.8316 -593.2117,1104.3723 L -617.7231,1087.3117 C -622.6251,1083.9302 -626.8467,1080.0879 -630.3872,1075.7843 -633.9277,1071.4808 -636.7873,1066.2548 -638.9663,1060.1067 -641.145,1053.959 -642.7791,1046.4276 -643.8685,1037.5129 -644.9579,1028.5985 -645.5024,1017.6857 -645.5024,1004.775 -645.5024,989.405 -644.0499,975.5722 -641.145,963.2764 -638.24,950.9803 -633.8823,940.5286 -628.0722,931.9215 -623.3516,925.1589 -618.0863,920.0098 -612.2761,916.4747 -606.4659,912.9396 -599.8388,911.1722 -592.3947,911.1722 -575.6907,911.1722 -562.9813,918.0887 -554.2659,931.9215 -549.0006,940.2214 -545.1877,950.8266 -542.8273,963.7373 -540.4671,976.648 -539.2868,991.4031 -539.2868,1008.0028 L -577.9604,1008.0028 C -577.9604,1002.1623 -578.0965,996.7059 -578.3686,991.6339 -578.641,986.5616 -579.5943,982.1812 -581.2285,978.4925 -582.3179,976.0334 -583.725,974.0353 -585.4499,972.4983 -587.1747,970.9611 -589.4895,970.1926 -592.3947,970.1926 -595.1183,970.1926 -597.3877,971.0379 -599.2033,972.7288 -601.0191,974.4194 -602.4716,976.4943 -603.561,978.9537 -605.7397,983.8721 -606.829,991.7107 -606.829,1002.4696 -606.829,1007.6953 -606.6476,1012.0759 -606.2845,1015.611 -605.9211,1019.1461 -605.2859,1022.1432 -604.3779,1024.6022 -603.4703,1027.0616 -602.1085,1029.2902 -600.2929,1031.2883 -598.477,1033.2865 -596.2076,1035.2075 -593.4841,1037.052 L -569.2453,1053.6514 C -563.072,1057.955 -557.9881,1062.4893 -553.9935,1067.254 -549.9992,1072.0185 -546.7765,1078.0129 -544.3254,1085.2367 -541.8743,1092.4605 -540.1494,1101.1445 -539.1507,1111.2888 -538.1521,1121.4329 -537.6529,1133.8826 -537.6529,1148.6378 Z M -454.8591,1242.2407 C -462.4849,1242.2407 -469.3391,1241.3186 -475.4214,1239.474 -481.5037,1237.6295 -487.1775,1233.4799 -492.4431,1227.0243 -497.7085,1220.8765 -501.8389,1212.6535 -504.8351,1202.3558 -507.8307,1192.0578 -509.3286,1178.7627 -509.3286,1162.4706 L -509.3286,1050.4239 -522.9459,1050.4239 -522.9459,1003.8529 -509.3286,1003.8529 -509.3286,936.0714 -472.8339,936.0714 -472.8339,1003.8529 -454.8591,1003.8529 -454.8591,1050.4239 -472.8339,1050.4239 -472.8339,1158.3207 C -472.8339,1177.3794 -466.8423,1186.9089 -454.8591,1186.9089 L -454.8591,1242.2407 Z M -376.4228,1242.2407 L -376.4228,1224.258 C -377.8756,1227.3318 -379.5097,1230.2521 -381.3253,1233.0187 -383.1409,1235.7853 -385.0472,1238.0907 -387.0445,1239.9352 -391.4019,1243.9312 -396.032,1245.9294 -400.9343,1245.9294 -407.6521,1245.9294 -413.1445,1244.2388 -417.4112,1240.8574 -421.6782,1237.4759 -425.6271,1232.2502 -429.2583,1225.1801 -432.1636,1219.3396 -434.2516,1212.3462 -435.5223,1204.2 -436.7934,1196.0541 -437.4289,1184.296 -437.4289,1168.926 L -437.4289,994.1698 -400.9343,994.1698 -400.9343,1168.0038 C -400.9343,1175.6889 -399.8449,1181.3757 -397.6659,1185.0644 -395.4872,1188.7532 -392.7637,1190.5977 -389.4956,1190.5977 -386.2276,1190.5977 -383.504,1188.7532 -381.3253,1185.0644 -379.1463,1181.3757 -378.057,1175.6889 -378.057,1168.0038 L -378.057,994.1698 -341.5623,994.1698 -341.5623,1242.2407 -376.4228,1242.2407 Z M -260.4027,1068.4066 C -260.4027,1060.7216 -261.5831,1054.8811 -263.9432,1050.8848 -266.3036,1047.5036 -268.9364,1045.8128 -271.8414,1045.8128 -273.657,1045.8128 -275.4729,1046.5812 -277.2884,1048.1182 -279.104,1049.6554 -280.4658,1052.1145 -281.3737,1055.4959 -282.8259,1060.7216 -283.6431,1068.9446 -283.8249,1080.1647 -284.0063,1091.3848 -284.097,1104.065 -284.097,1118.2054 -284.097,1132.3457 -284.0063,1145.0259 -283.8249,1156.2457 -283.6431,1167.4658 -282.8259,1175.6889 -281.3737,1180.9145 -280.4658,1184.296 -279.104,1186.7553 -277.2884,1188.2923 -275.4729,1189.8292 -273.657,1190.5977 -271.8414,1190.5977 -268.9364,1190.5977 -266.3036,1188.9071 -263.9432,1185.5256 -261.5831,1181.5294 -260.4027,1175.6889 -260.4027,1168.0038 L -260.4027,1068.4066 Z M -258.7689,1242.2407 L -258.7689,1224.258 C -259.6765,1226.717 -261.2653,1229.5604 -263.5347,1232.7883 -265.8044,1236.0158 -267.7561,1238.3983 -269.3903,1239.9352 -273.748,1243.9312 -278.3778,1245.9294 -283.28,1245.9294 -289.2716,1245.9294 -294.4009,1244.4693 -298.6676,1241.549 -302.9346,1238.6288 -306.8836,1233.326 -310.5147,1225.6413 -315.5987,1214.8821 -318.549,1200.5113 -319.3662,1182.5286 -320.1831,1164.5456 -320.5916,1143.1046 -320.5916,1118.2054 -320.5916,1093.3058 -320.1831,1071.8649 -319.3662,1053.8821 -318.549,1035.8991 -315.5987,1021.5283 -310.5147,1010.7694 -306.8836,1003.0844 -302.9346,997.7817 -298.6676,994.8614 -294.4009,991.9412 -289.2716,990.481 -283.28,990.481 -278.3778,990.481 -273.748,992.4792 -269.3903,996.4752 -266.1219,999.8566 -263.1263,1004.0066 -260.4027,1008.9249 L -260.4027,913.9388 -223.9081,913.9388 -223.9081,1242.2407 -258.7689,1242.2407 Z M -137.8463,1264.8345 C -140.025,1278.6676 -143.0663,1289.5033 -146.9699,1297.3419 -150.8734,1305.1806 -155.4582,1310.9443 -160.7236,1314.633 -165.9889,1318.322 -171.8898,1320.5506 -178.4262,1321.3191 -184.9626,1322.0875 -191.8619,1322.4716 -199.1245,1322.4716 L -199.1245,1268.0623 C -196.401,1268.0623 -193.7231,1267.9852 -191.0903,1267.8316 -188.4574,1267.6779 -186.0063,1266.9863 -183.7369,1265.7566 -181.4672,1264.5272 -179.4702,1262.3751 -177.745,1259.3013 -176.0202,1256.2274 -174.6133,1251.6163 -173.5237,1245.4685 L -172.9791,1242.2407 -210.2907,994.1698 -169.9832,994.1698 -153.6426,1144.0267 -137.3017,994.1698 -96.9942,994.1698 -137.8463,1264.8345 Z M 36.184,1242.2407 L 36.184,1104.8335 4.0467,1104.8335 4.0467,1242.2407 -34.6266,1242.2407 -34.6266,913.9388 4.0467,913.9388 4.0467,1045.8128 36.184,1045.8128 36.184,913.9388 74.8573,913.9388 74.8573,1242.2407 36.184,1242.2407 Z M 159.285,1118.2054 C 159.285,1104.065 159.1943,1091.3848 159.0129,1080.1647 158.8311,1068.9446 158.0142,1060.7216 156.5617,1055.4959 155.6538,1052.1145 154.292,1049.6554 152.4764,1048.1182 150.6609,1046.5812 148.845,1045.8128 147.0294,1045.8128 145.2138,1045.8128 143.3982,1046.5812 141.5826,1048.1182 139.767,1049.6554 138.405,1052.1145 137.4973,1055.4959 136.0449,1060.7216 135.2279,1068.9446 135.0462,1080.1647 134.8648,1091.3848 134.7738,1104.065 134.7738,1118.2054 134.7738,1132.3457 134.8648,1145.0259 135.0462,1156.2457 135.2279,1167.4658 136.0449,1175.6889 137.4973,1180.9145 138.405,1184.296 139.767,1186.7553 141.5826,1188.2923 143.3982,1189.8292 145.2138,1190.5977 147.0294,1190.5977 148.845,1190.5977 150.6609,1189.8292 152.4764,1188.2923 154.292,1186.7553 155.6538,1184.296 156.5617,1180.9145 158.0142,1175.6889 158.8311,1167.4658 159.0129,1156.2457 159.1943,1145.0259 159.285,1132.3457 159.285,1118.2054 Z M 195.7799,1118.2054 C 195.7799,1126.5049 195.6889,1135.1891 195.5075,1144.2572 195.3258,1153.3255 194.872,1162.2402 194.1457,1171.0009 193.4195,1179.762 192.4209,1188.0615 191.1498,1195.9002 189.879,1203.7391 188.0631,1210.5785 185.703,1216.419 180.9822,1228.4076 175.3084,1236.3233 168.6813,1240.1657 162.0541,1244.0081 154.8369,1245.9294 147.0294,1245.9294 139.2222,1245.9294 132.0049,1244.0081 125.3778,1240.1657 118.7507,1236.3233 113.0769,1228.4076 108.356,1216.419 105.9959,1210.5785 104.1347,1203.7391 102.7729,1195.9002 101.4111,1188.0615 100.4125,1179.762 99.7773,1171.0009 99.1417,1162.2402 98.733,1153.3255 98.5516,1144.2572 98.3699,1135.1891 98.2791,1126.5049 98.2791,1118.2054 98.2791,1109.9055 98.3699,1101.2216 98.5516,1092.1533 98.733,1083.0849 99.1417,1074.1703 99.7773,1065.4095 100.4125,1056.6488 101.4111,1048.3489 102.7729,1040.5103 104.1347,1032.6716 105.9959,1025.8319 108.356,1019.9914 113.0769,1008.0028 118.7507,1000.0874 125.3778,996.2447 132.0049,992.4024 139.2222,990.481 147.0294,990.481 154.8369,990.481 162.0541,992.4024 168.6813,996.2447 175.3084,1000.0874 180.9822,1008.0028 185.703,1019.9914 188.0631,1025.8319 189.879,1032.6716 191.1498,1040.5103 192.4209,1048.3489 193.4195,1056.6488 194.1457,1065.4095 194.872,1074.1703 195.3258,1083.0849 195.5075,1092.1533 195.6889,1101.2216 195.7799,1109.9055 195.7799,1118.2054 Z M 335.4942,1242.2407 L 335.4942,1068.4066 C 335.4942,1060.7216 334.4049,1055.0347 332.2259,1051.346 330.0471,1047.6573 327.3239,1045.8128 324.0556,1045.8128 320.7875,1045.8128 318.064,1047.6573 315.885,1051.346 313.7063,1055.0347 312.6169,1060.7216 312.6169,1068.4066 L 312.6169,1242.2407 276.1223,1242.2407 276.1223,1068.4066 C 276.1223,1060.7216 275.0329,1055.0347 272.8542,1051.346 270.6755,1047.6573 267.952,1045.8128 264.6839,1045.8128 261.4156,1045.8128 258.692,1047.6573 256.5133,1051.346 254.3346,1055.0347 253.245,1060.7216 253.245,1068.4066 L 253.245,1242.2407 216.7506,1242.2407 216.7506,994.1698 251.6111,994.1698 251.6111,1012.1528 C 253.0636,1009.0786 254.6977,1006.1583 256.5133,1003.3917 258.3289,1000.6251 260.2355,998.3197 262.2325,996.4752 266.5902,992.4792 271.22,990.481 276.1223,990.481 282.2956,990.481 287.8787,992.7096 292.8716,997.1668 297.8649,1001.6243 301.9955,1007.8492 305.2636,1015.8415 307.2609,1012.1528 309.5303,1008.6177 312.0721,1005.2362 314.6142,1001.8548 317.247,998.9345 319.9703,996.4752 321.9676,994.631 324.4187,993.1708 327.3239,992.0948 330.2289,991.0191 332.589,990.481 334.4049,990.481 341.6675,990.481 347.4774,992.1716 351.8351,995.5531 356.1925,998.9345 360.1871,1004.1602 363.8183,1011.2304 365.271,1014.3045 366.4964,1017.4552 367.4951,1020.6831 368.4937,1023.9106 369.356,1027.7532 370.0823,1032.2104 370.8085,1036.6676 371.308,1041.7397 371.5804,1047.4268 371.8525,1053.1137 371.9889,1059.7995 371.9889,1067.4845 L 371.9889,1242.2407 335.4942,1242.2407 Z M 453.1484,1093.3058 C 453.1484,1085.0063 452.9667,1077.1676 452.6036,1069.7899 452.2405,1062.4124 451.605,1057.494 450.6973,1055.0347 449.6077,1052.5757 448.3369,1050.4239 446.8844,1048.5794 445.4317,1046.7351 443.5254,1045.8128 441.165,1045.8128 438.8046,1045.8128 436.8983,1046.7351 435.4458,1048.5794 433.9933,1050.4239 432.7223,1052.5757 431.6329,1055.0347 430.725,1057.494 430.0441,1062.4124 429.5903,1069.7899 429.1364,1077.1676 428.9094,1085.0063 428.9094,1093.3058 L 453.1484,1093.3058 Z M 428.9094,1138.0326 C 428.9094,1146.3321 429.0911,1154.7088 429.4542,1163.1623 429.8173,1171.6157 430.5433,1177.5331 431.6329,1180.9145 432.5406,1183.6811 433.7663,1185.9866 435.3094,1187.8311 436.8529,1189.6756 438.8046,1190.5977 441.165,1190.5977 443.5254,1190.5977 445.3863,1189.7524 446.7481,1188.0615 448.1099,1186.3709 449.4263,1183.9887 450.6973,1180.9145 451.2419,1179.3776 451.6957,1176.9185 452.0591,1173.5371 452.4222,1170.1556 452.6036,1167.5426 452.6036,1165.6984 L 488.8259,1165.6984 C 488.4627,1175.5352 487.328,1185.6793 485.4214,1196.1309 483.5151,1206.5825 480.2924,1216.1117 475.7533,1224.7189 471.5773,1232.4039 466.5387,1237.8603 460.6379,1241.0878 454.737,1244.3156 448.2462,1245.9294 441.165,1245.9294 433.7209,1245.9294 427.4569,1244.4693 422.373,1241.549 417.2893,1238.6288 412.1147,1232.8651 406.8493,1224.258 403.2179,1218.4172 400.449,1211.347 398.5427,1203.0474 396.6361,1194.7476 395.229,1185.9097 394.3213,1176.5341 393.4134,1167.1586 392.8686,1157.3986 392.6871,1147.2545 392.5054,1137.1102 392.4147,1127.4273 392.4147,1118.2054 392.4147,1108.9834 392.5054,1099.3003 392.6871,1089.1562 392.8686,1079.0118 393.4134,1069.1751 394.3213,1059.6458 395.229,1050.1163 396.6361,1041.2019 398.5427,1032.9021 400.449,1024.6022 403.2179,1017.5321 406.8493,1011.6916 412.1147,1003.0844 417.6071,997.3976 423.3263,994.631 429.0454,991.8643 434.9917,990.481 441.165,990.481 447.5197,990.481 453.5113,991.7875 459.14,994.4005 464.7685,997.0132 470.1246,1002.7769 475.2085,1011.6916 479.2031,1019.069 482.1987,1027.9069 484.196,1038.2046 486.1933,1048.5026 487.6004,1059.4151 488.4174,1070.9427 489.2343,1082.4701 489.6431,1094.0743 489.6431,1105.7556 489.6431,1117.4369 489.6431,1128.1958 489.6431,1138.0326 L 428.9094,1138.0326 Z M 559.364,1242.2407 L 559.364,913.9388 598.0374,913.9388 598.0374,1183.2202 648.6942,1183.2202 648.6942,1242.2407 559.364,1242.2407 Z M 666.669,976.648 L 666.669,911.1722 705.3423,911.1722 705.3423,976.648 666.669,976.648 Z M 667.7583,1242.2407 L 667.7583,1003.8529 704.253,1003.8529 704.253,1242.2407 667.7583,1242.2407 Z M 789.4976,1118.2054 C 789.4976,1104.065 789.4069,1091.3848 789.2252,1080.1647 789.0437,1068.9446 788.2268,1060.7216 786.7743,1055.4959 785.8664,1052.1145 784.5046,1049.6554 782.689,1048.1182 780.8732,1046.5812 779.0576,1045.8128 777.242,1045.8128 774.337,1045.8128 771.7042,1047.5036 769.3441,1050.8848 766.9837,1054.8811 765.8033,1060.7216 765.8033,1068.4066 L 765.8033,1168.0038 C 765.8033,1175.6889 766.9837,1181.5294 769.3441,1185.5256 771.7042,1188.9071 774.337,1190.5977 777.242,1190.5977 779.0576,1190.5977 780.8732,1189.8292 782.689,1188.2923 784.5046,1186.7553 785.8664,1184.296 786.7743,1180.9145 788.2268,1175.6889 789.0437,1167.4658 789.2252,1156.2457 789.4069,1145.0259 789.4976,1132.3457 789.4976,1118.2054 Z M 825.9922,1118.2054 C 825.9922,1143.1046 825.5837,1164.5456 824.7668,1182.5286 823.9499,1200.5113 820.9993,1214.8821 815.9153,1225.6413 812.2842,1233.326 808.3352,1238.6288 804.0682,1241.549 799.8015,1244.4693 794.6722,1245.9294 788.6806,1245.9294 783.7784,1245.9294 779.1486,1243.9312 774.7909,1239.9352 773.157,1238.3983 771.205,1236.0158 768.9356,1232.7883 766.6659,1229.5604 765.0774,1226.717 764.1692,1224.258 L 764.1692,1242.2407 729.309,1242.2407 729.309,913.9388 765.8033,913.9388 765.8033,1008.9249 C 768.5269,1004.0066 771.5228,999.8566 774.7909,996.4752 779.1486,992.4792 783.7784,990.481 788.6806,990.481 794.6722,990.481 799.8015,991.9412 804.0682,994.8614 808.3352,997.7817 812.2842,1003.0844 815.9153,1010.7694 820.9993,1021.5283 823.9499,1035.8991 824.7668,1053.8821 825.5837,1071.8649 825.9922,1093.3058 825.9922,1118.2054 Z M 906.0625,1051.346 C 899.8894,1051.346 894.5787,1054.8043 890.1303,1061.7208 885.6819,1068.6373 883.4576,1078.397 883.4576,1091.0004 L 883.4576,1242.2407 846.9632,1242.2407 846.9632,994.1698 881.8237,994.1698 881.8237,1020.9135 C 883.821,1016.61 886.1814,1012.5369 888.9046,1008.6945 891.6282,1004.8518 894.6241,1001.5475 897.8922,998.7809 900.9788,996.3215 904.3376,994.3234 907.969,992.7865 911.6005,991.2495 915.4134,990.481 919.4077,990.481 L 919.4077,1051.346 906.0625,1051.346 Z M 989.1286,1138.0326 L 982.8646,1138.0326 C 979.778,1138.0326 977.1905,1138.263 975.1025,1138.7242 973.0145,1139.1851 970.9722,1140.9528 968.9749,1144.0267 967.5224,1146.486 966.3877,1149.7904 965.5707,1153.9403 964.7535,1158.0902 964.345,1161.8558 964.345,1165.2372 964.345,1174.1519 965.4797,1180.8377 967.7494,1185.2949 970.0189,1189.7524 973.0602,1191.981 976.873,1191.981 980.1414,1191.981 983.0007,1189.7524 985.4518,1185.2949 987.9029,1180.8377 989.1286,1174.1519 989.1286,1165.2372 L 989.1286,1138.0326 Z M 991.5797,1242.2407 L 991.5797,1221.9523 C 990.1273,1225.0264 988.6748,1227.9467 987.222,1230.7133 985.7696,1233.4799 984.045,1235.939 982.0477,1238.0907 979.869,1240.5501 977.5539,1242.4711 975.1025,1243.8544 972.6517,1245.2377 969.6104,1245.9294 965.9792,1245.9294 959.0797,1245.9294 953.4059,1244.162 948.9574,1240.6269 944.509,1237.0918 940.2877,1231.1742 936.2934,1222.8746 933.2065,1216.419 931.0277,1208.5804 929.757,1199.3584 928.4859,1190.1365 927.8504,1179.6851 927.8504,1168.0038 927.8504,1144.6415 932.5712,1126.1976 942.0126,1112.6721 945.6437,1107.4462 950.1375,1103.2194 955.4939,1099.9919 960.8499,1096.7641 968.3393,1095.1503 977.9624,1095.1503 L 989.1286,1095.1503 989.1286,1066.5624 C 989.1286,1052.1145 985.4972,1044.8906 978.2348,1044.8906 976.2375,1044.8906 974.6487,1045.4287 973.4686,1046.5044 972.2886,1047.5804 971.2446,1049.0406 970.3366,1050.8848 968.1579,1055.4959 967.0686,1061.1828 967.0686,1067.9457 L 930.5739,1067.9457 C 930.5739,1057.8013 931.6179,1048.1182 933.7059,1038.8962 935.7939,1029.6743 939.1983,1020.9135 943.9189,1012.6137 947.5503,1006.4659 952.5433,1001.2399 958.898,996.9364 965.253,992.6328 971.6077,990.481 977.9624,990.481 984.3171,990.481 990.445,992.018 996.3459,995.0922 1002.2465,998.166 1007.3761,1003.3917 1011.7335,1010.7694 1015.9095,1017.8396 1019.2686,1026.3699 1021.8104,1036.3603 1024.3522,1046.3508 1025.6233,1058.4162 1025.6233,1072.5565 L 1025.6233,1242.2407 991.5797,1242.2407 Z M 1109.234,1051.346 C 1103.0607,1051.346 1097.75,1054.8043 1093.3016,1061.7208 1088.8534,1068.6373 1086.6291,1078.397 1086.6291,1091.0004 L 1086.6291,1242.2407 1050.1345,1242.2407 1050.1345,994.1698 1084.9949,994.1698 1084.9949,1020.9135 C 1086.9922,1016.61 1089.3526,1012.5369 1092.0759,1008.6945 1094.7997,1004.8518 1097.7953,1001.5475 1101.0637,998.7809 1104.15,996.3215 1107.5091,994.3234 1111.1403,992.7865 1114.7717,991.2495 1118.5846,990.481 1122.5789,990.481 L 1122.5789,1051.346 1109.234,1051.346 Z M 1201.5598,1264.8345 C 1199.3811,1278.6676 1196.3398,1289.5033 1192.4362,1297.3419 1188.5326,1305.1806 1183.9479,1310.9443 1178.6825,1314.633 1173.4172,1318.322 1167.5163,1320.5506 1160.9799,1321.3191 1154.4435,1322.0875 1147.5442,1322.4716 1140.2816,1322.4716 L 1140.2816,1268.0623 C 1143.0051,1268.0623 1145.683,1267.9852 1148.3158,1267.8316 1150.9486,1267.6779 1153.3997,1266.9863 1155.6692,1265.7566 1157.9389,1264.5272 1159.9359,1262.3751 1161.661,1259.3013 1163.3859,1256.2274 1164.7928,1251.6163 1165.8824,1245.4685 L 1166.4269,1242.2407 1129.1153,994.1698 1169.4229,994.1698 1185.7635,1144.0267 1202.1043,994.1698 1242.4119,994.1698 1201.5598,1264.8345 Z"
           style="fill-rule:evenodd;fill:#1a4480;" />
        <g
           id="g28">
          <path
             id="path8"
             d="M 189.7245,811.4258 L 188.7457,103.99 C 140.7833,96.6919 -276.6524,1.4206 -292.1,-9.2859 -309.8208,-9.6398 -312.4959,-11.5401 -325.9954,-14.6838 L -325.9954,325.4788 C -313.5831,316.3856 -295.384,290.0051 -285.6818,273.9996 -265.9777,241.4879 -273.5947,227.118 -261.2016,201.2923 -184.1709,221.8604 -297.1981,314.1027 -218.0121,320.4571 -176.6464,323.7762 -172.1667,309.9961 -140.2321,300.6638 -114.6328,293.1871 -87.2161,280.7047 -61.4223,293.0819 -68.2932,318.8088 -79.5641,310.3469 -113.6731,327.2228 -159.3591,349.8315 -157.0188,349.519 -158.613,368.6747 -136.54,368.6747 -110.1723,367.3674 -88.6126,368.866 -61.1832,370.7758 -46.7846,371.8184 -34.4265,390.2726 -56.9554,405.3567 -52.0167,401.3872 -88.4405,401.0492 -120.2379,400.7527 -125.7442,406.4694 -153.2151,406.4694 L -153.2151,417.2684 C -77.7882,434.8394 -47.5912,432.0209 -45.2255,460.4643 -85.6793,479.875 -154.7455,442.8454 -180.2109,455.0632 -169.7691,494.1652 -120.4579,502.3561 -110.0193,541.4549 -140.044,555.8631 -176.3211,508.5766 -202.7239,493.773 -214.2658,487.3038 -308.5838,464.5199 -325.9954,460.4643 L -325.9954,692.6372 C -313.4269,698.6696 -89.1802,749.0648 -72.6645,752.4731 -44.6101,758.2664 171.1683,810.1569 189.7245,811.4258 Z"
             style="fill-rule:evenodd;fill:#ce6e29;" />
          <path
             id="path10"
             d="M 818.6822,-1.7997 L 353.2267,104.7616 C 339.7367,116.4501 368.8464,106.8149 338.9652,114.9006 L 338.9652,811.4258 C 355.7295,820.6274 806.3305,699.1542 856.4769,698.0383 L 856.4769,438.8663 C 844.2336,432.9902 811.6997,417.7626 799.214,419.3887 791.189,420.4344 776.8892,427.0981 766.6609,430.0091 720.0471,443.279 706.605,432.8722 668.9442,461.9086 656.7487,471.3111 605.1069,518.5338 594.8754,496.2536 583.9872,472.5354 733.8878,389.3129 607.7692,416.8443 578.3948,423.2561 562.6029,422.6663 527.1133,422.6663 520.4815,415.4702 519.9618,408.2677 527.1133,401.0715 L 610.6323,382.002 C 636.8757,374.9015 622.155,386.3445 635.0998,368.6747 603.1429,353.3387 547.8153,367.5906 516.3143,352.4746 528.0634,308.4689 598.7812,345.4953 640.5008,325.4788 636.5218,310.5796 632.3641,309.9387 620.3408,302.4429 611.5314,296.9462 600.3658,291.4176 591.8752,287.7127 559.2838,273.499 545.66,278.0998 543.3101,249.886 624.8588,249.886 647.0019,295.4955 726.8925,276.885 726.8925,233.4596 691.6676,173.1742 743.0894,168.8954 756.9109,228.2212 784.2511,303.8809 856.4769,303.8809 L 856.4769,-9.2859 C 830.2846,-9.2859 838.5584,-10.1053 818.6822,-1.7997 Z"
             style="fill-rule:evenodd;fill:#ed7c22;" />
          <path
             id="path12"
             d="M 986.0613,-30.8839 C 994.6826,-49.4241 984.6648,-38.5232 1002.2614,-48.2859 1014.747,-64.2341 1029.2604,-70.0592 1034.6583,-90.2766 L 784.4647,-218.0404 C 714.9808,-252.446 315.3586,-466.2922 278.7403,-479.5335 253.9349,-488.5023 179.474,-437.3388 154.592,-424.9998 133.0993,-414.3412 110.9084,-403.7622 89.6898,-392.7145 68.1876,-381.5202 51.0725,-366.3309 24.9662,-360.2475 24.4114,-385.19 17.1898,-429.0905 8.7694,-446.6392 -233.3768,-446.6392 -185.612,-494.7898 -185.612,-246.86 -196.9753,-244.2104 -484.9095,-91.8994 -487.9767,-90.2766 -482.126,-68.363 -443.3142,-28.5468 -423.1861,1.513 -249.9244,-90.165 -5.76,-213.3535 177.9404,-304.464 298.5177,-364.268 241.4716,-368.0813 440.7216,-268.4579 608.2283,-184.7029 798.2607,-94.3736 959.0655,-9.2859 L 986.0613,-30.8839 Z"
             style="fill-rule:evenodd;fill:#1a4480;" />
          <path
             id="path14"
             d="M 189.7245,811.4258 L 338.9652,811.4258 338.9652,114.9006 C 368.8464,106.8149 339.7367,116.4501 353.2267,104.7616 L 267.9413,105.4535 262.5402,104.9848 188.7457,103.99 189.7245,811.4258 Z"
             style="fill-rule:evenodd;fill:#f49845;" />
          <path
             id="path16"
             d="M 942.8687,314.6798 L 942.8687,314.6798 Z M 986.0613,-30.8839 C 987.3431,-15.5096 989.9352,-15.1876 989.9862,-8.0265 990.2126,24.0005 991.9152,-9.4932 985.1335,11.6361 973.7925,46.9758 984.1993,28.3112 991.4624,55.5079 980.8005,71.4305 974.2166,84.5857 966.826,106.4642 951.6717,151.3212 962.5663,246.2418 932.0697,303.8809 L 942.8687,314.6798 C 957.009,333.9821 964.3518,328.9286 1007.8952,330.5802 1055.2136,332.372 1065.123,321.42 1083.252,309.2788 1082.6367,281.6548 1070.8174,254.6399 1067.9001,227.4432 1064.3546,194.415 1062.7062,163.8036 1056.9449,135.8066 1045.2755,79.0858 1032.6528,78.8881 1027.3155,62.366 1016.9629,30.3135 1031.4508,58.9003 1033.5806,28.0625 1034.8273,9.9973 1026.4993,3.0817 1007.6593,1.513 1007.6593,-26.0758 1003.9129,-26.5923 1002.2614,-48.2859 984.6648,-38.5232 994.6826,-49.4241 986.0613,-30.8839 Z"
             style="fill-rule:evenodd;fill:#ed7c22;" />
          <path
             id="path18"
             d="M -292.1,-9.2859 C -276.6524,1.4206 140.7833,96.6919 188.7457,103.99 L 262.5402,104.9848 C 201.8977,13.1155 -48.6115,-7.6312 -150.8207,-22.4762 -250.8075,-36.9991 -238.1306,-43.4715 -292.1,-9.2859 Z"
             style="fill-rule:evenodd;fill:#f2dfae;" />
          <path
             id="path20"
             d="M 267.9413,105.4535 L 353.2267,104.7616 818.6822,-1.7997 C 790.6788,-49.9502 730.2084,-25.4318 678.742,-19.6385 581.5258,-8.6993 398.3387,12.4555 319.6724,64.0463 L 267.9413,105.4535 Z"
             style="fill-rule:evenodd;fill:#f2dfae;" />
          <path
             id="path22"
             d="M 878.0749,455.0632 L 878.0749,460.4643 884.3751,455.9655 878.0749,455.0632 Z"
             style="fill-rule:evenodd;fill:#ffffff;" />
          <path
             id="path24"
             d="M 878.0749,455.0632 L 873.0405,443.9007 C 875.1511,454.5945 874.5326,449.4804 878.0749,455.0632 Z"
             style="fill-rule:evenodd;fill:#ffffff;" />
          <path
             id="path26"
             d="M 301.8762,273.2145 C 301.8762,281.8001 301.3268,289.1534 300.2287,295.2746 299.1302,301.396 296.8727,306.6029 293.4558,310.8957 290.5271,314.5524 286.6524,317.5733 281.8321,319.9584 277.0118,322.3431 271.4287,323.5357 265.0827,323.5357 258.6149,323.5357 253.0318,322.4225 248.3337,320.1968 243.6355,317.971 239.8218,314.9501 236.8928,311.1341 233.7199,307.0003 231.493,301.8728 230.2118,295.7516 228.9302,289.6305 228.2896,282.1975 228.2896,273.4529 L 254.2827,273.4529 C 254.2827,276.9508 254.4352,279.9717 254.7405,282.5155 255.0455,285.0593 255.8081,287.2057 257.0284,288.9547 257.7609,290.0676 258.7674,291.0217 260.049,291.8166 261.3302,292.6117 263.0083,293.0091 265.0827,293.0091 268.8659,293.0091 271.6118,291.5782 273.3202,288.7163 275.0287,286.0135 275.883,281.2436 275.883,274.407 275.883,270.432 275.7302,267.133 275.4252,264.5096 275.1202,261.8864 274.5405,259.74 273.6862,258.0704 272.8321,256.4011 271.6727,255.0098 270.2081,253.8969 268.744,252.7841 266.8524,251.5915 264.5337,250.3196 L 248.059,241.4954 C 244.7643,239.7467 241.9268,237.7593 239.5471,235.5333 237.1674,233.3075 235.2453,230.6044 233.7812,227.4248 232.3168,224.2449 231.2184,220.3495 230.4862,215.7386 229.754,211.1278 229.388,205.4837 229.388,198.8059 229.388,190.8564 230.3643,183.7018 232.3168,177.342 234.269,170.9824 237.198,165.5765 241.1031,161.1249 244.2759,157.627 247.8149,154.9638 251.7202,153.1355 255.6252,151.3071 260.0796,150.3927 265.0827,150.3927 276.3099,150.3927 284.8524,153.97 290.7099,161.1249 294.249,165.4177 296.8115,170.9028 298.398,177.5806 299.9846,184.2582 300.7777,191.8899 300.7777,200.4755 L 274.7846,200.4755 C 274.7846,197.4546 274.693,194.6324 274.5099,192.009 274.3268,189.3858 273.6862,187.1201 272.588,185.2121 271.8556,183.9402 270.9099,182.9066 269.7506,182.1118 268.5915,181.317 267.0352,180.9193 265.0827,180.9193 263.2524,180.9193 261.7271,181.3567 260.5065,182.2311 259.2862,183.1056 258.3099,184.1788 257.5777,185.4507 256.1134,187.9946 255.3812,192.0489 255.3812,197.6136 255.3812,200.3165 255.5031,202.5822 255.7471,204.4106 255.9915,206.2389 256.4184,207.7892 257.0284,209.0611 257.6387,210.333 258.554,211.4855 259.7743,212.5191 260.9946,213.5526 262.5199,214.5464 264.3506,215.5003 L 280.6424,224.0858 C 284.7915,226.3116 288.2083,228.657 290.893,231.1211 293.5777,233.5856 295.744,236.6861 297.3915,240.4222 299.039,244.1585 300.198,248.65 300.8693,253.8969 301.5405,259.1436 301.8762,265.5828 301.8762,273.2145 Z M 276.0661,543.3259 L 276.0661,472.2562 254.4659,472.2562 254.4659,543.3259 228.4727,543.3259 228.4727,373.5218 254.4659,373.5218 254.4659,441.7296 276.0661,441.7296 276.0661,373.5218 302.0593,373.5218 302.0593,543.3259 276.0661,543.3259 Z M 253.6421,765.0241 L 253.6421,595.22 279.6355,595.22 279.6355,734.4975 313.683,734.4975 313.683,765.0241 253.6421,765.0241 Z"
             style="fill-rule:evenodd;fill:#ffffff;" />
        </g>
      </g>
    </g>
  </g>
  <g
     id="g36" />
  <g
     id="g38" />
</svg>
